<svg width="80" height="80" viewBox="0 0 80 80" fill="none" xmlns="http://www.w3.org/2000/svg">
<rect width="80" height="80" rx="40" fill="#424242" fill-opacity="0.6"/>
<path d="M40 16C26.752 16 16 26.752 16 40C16 53.248 26.752 64 40 64C53.248 64 64 53.248 64 40C64 26.752 53.248 16 40 16ZM40 59.2C29.416 59.2 20.8 50.584 20.8 40C20.8 29.416 29.416 20.8 40 20.8C50.584 20.8 59.2 29.416 59.2 40C59.2 50.584 50.584 59.2 40 59.2ZM34 49.3347C34 49.9676 34.7002 50.3499 35.2326 50.0076L49.7532 40.6729C50.2431 40.358 50.2431 39.642 49.7532 39.3271L35.2326 29.9924C34.7002 29.6501 34 30.0324 34 30.6653V49.3347Z" fill="white"/>
</svg>
