<svg width="1920" height="1080" viewBox="0 0 1920 1080" fill="none" xmlns="http://www.w3.org/2000/svg">
<g clip-path="url(#clip0_1850_35407)">
<rect width="1920" height="1080" fill="white"/>
<path d="M778.999 1347.51L2430.4 489.979L2456.64 507.891L805.283 1365.45L778.999 1347.51Z" fill="url(#paint0_linear_1850_35407)" fill-opacity="0.5"/>
<path d="M631.564 1179.82L2226.69 350.927L2377.67 453.986L782.613 1282.92L631.564 1179.82Z" fill="url(#paint1_linear_1850_35407)" fill-opacity="0.5"/>
<path d="M533.173 1112.66L2112.2 272.775L2175.71 316.13L596.605 1155.96L533.173 1112.66Z" fill="url(#paint2_linear_1850_35407)" fill-opacity="0.5"/>
<path d="M-163.546 905.368L1621.45 -147.881L1647.69 -129.969L-137.262 923.309L-163.546 905.368Z" fill="url(#paint3_linear_1850_35407)" fill-opacity="0.5"/>
<path d="M-306.468 731.065L1417.74 -286.932L1568.72 -183.873L-155.419 834.17L-306.468 731.065Z" fill="url(#paint4_linear_1850_35407)" fill-opacity="0.5"/>
<path d="M-404.859 663.904L1303.25 -365.085L1366.76 -321.73L-341.427 707.202L-404.859 663.904Z" fill="url(#paint5_linear_1850_35407)" fill-opacity="0.5"/>
</g>
<defs>
<linearGradient id="paint0_linear_1850_35407" x1="1241.15" y1="670.545" x2="1994.62" y2="1184.85" gradientUnits="userSpaceOnUse">
<stop offset="0.01" stop-color="#252C54" stop-opacity="0"/>
<stop offset="1" stop-color="#252C54"/>
</linearGradient>
<linearGradient id="paint1_linear_1850_35407" x1="1931.16" y1="1108.13" x2="1077.94" y2="525.728" gradientUnits="userSpaceOnUse">
<stop offset="0.01" stop-color="#252C54" stop-opacity="0"/>
<stop offset="1" stop-color="#252C54"/>
</linearGradient>
<linearGradient id="paint2_linear_1850_35407" x1="1729.27" y1="970.165" x2="979.691" y2="458.507" gradientUnits="userSpaceOnUse">
<stop stop-color="#252C54"/>
<stop offset="0.99" stop-color="#252C54" stop-opacity="0"/>
</linearGradient>
<linearGradient id="paint3_linear_1850_35407" x1="365.406" y1="130.539" x2="1118.87" y2="644.849" gradientUnits="userSpaceOnUse">
<stop offset="0.01" stop-color="#252C54" stop-opacity="0"/>
<stop offset="1" stop-color="#252C54"/>
</linearGradient>
<linearGradient id="paint4_linear_1850_35407" x1="1057.67" y1="564.826" x2="204.448" y2="-17.5727" gradientUnits="userSpaceOnUse">
<stop offset="0.01" stop-color="#252C54" stop-opacity="0"/>
<stop offset="1" stop-color="#252C54"/>
</linearGradient>
<linearGradient id="paint5_linear_1850_35407" x1="855.788" y1="426.849" x2="106.206" y2="-84.8091" gradientUnits="userSpaceOnUse">
<stop stop-color="#252C54"/>
<stop offset="0.99" stop-color="#252C54" stop-opacity="0"/>
</linearGradient>
<clipPath id="clip0_1850_35407">
<rect width="1920" height="1080" fill="white"/>
</clipPath>
</defs>
</svg>
