<svg width="1400" height="1080" viewBox="0 0 1400 1080" fill="none" xmlns="http://www.w3.org/2000/svg">
<g clip-path="url(#clip0_1850_35339)">
<rect width="1400" height="1080" fill="white"/>
<path d="M-220.728 566.74L2001.38 -184.067L2036.01 -167.485L-186.05 583.348L-220.728 566.74Z" fill="url(#paint0_linear_1850_35339)" fill-opacity="0.5"/>
<path d="M-413.779 412.961L1732.62 -312.788L1931.82 -217.385L-214.493 508.405L-413.779 412.961Z" fill="url(#paint1_linear_1850_35339)" fill-opacity="0.5"/>
<path d="M-543.594 350.789L1581.56 -385.133L1665.36 -345L-459.905 390.871L-543.594 350.789Z" fill="url(#paint2_linear_1850_35339)" fill-opacity="0.5"/>
<path d="M-209.061 1422.44L2013.05 671.633L2047.67 688.215L-174.383 1439.05L-209.061 1422.44Z" fill="url(#paint3_linear_1850_35339)" fill-opacity="0.5"/>
<path d="M-402.113 1268.66L1744.29 542.912L1943.48 638.314L-202.827 1364.1L-402.113 1268.66Z" fill="url(#paint4_linear_1850_35339)" fill-opacity="0.5"/>
<path d="M-531.927 1206.49L1593.23 470.566L1677.03 510.7L-448.238 1246.57L-531.927 1206.49Z" fill="url(#paint5_linear_1850_35339)" fill-opacity="0.5"/>
</g>
<defs>
<linearGradient id="paint0_linear_1850_35339" x1="410.681" y1="-38.4224" x2="1124.53" y2="706.294" gradientUnits="userSpaceOnUse">
<stop offset="0.01" stop-color="#252C54" stop-opacity="0"/>
<stop offset="1" stop-color="#252C54"/>
</linearGradient>
<linearGradient id="paint1_linear_1850_35339" x1="1321.78" y1="367.374" x2="513.415" y2="-475.935" gradientUnits="userSpaceOnUse">
<stop offset="0.01" stop-color="#252C54" stop-opacity="0"/>
<stop offset="1" stop-color="#252C54"/>
</linearGradient>
<linearGradient id="paint2_linear_1850_35339" x1="1055.42" y1="239.665" x2="345.242" y2="-501.212" gradientUnits="userSpaceOnUse">
<stop stop-color="#252C54"/>
<stop offset="0.99" stop-color="#252C54" stop-opacity="0"/>
</linearGradient>
<linearGradient id="paint3_linear_1850_35339" x1="422.348" y1="817.277" x2="1136.2" y2="1561.99" gradientUnits="userSpaceOnUse">
<stop offset="0.01" stop-color="#252C54" stop-opacity="0"/>
<stop offset="1" stop-color="#252C54"/>
</linearGradient>
<linearGradient id="paint4_linear_1850_35339" x1="1333.44" y1="1223.07" x2="525.082" y2="379.764" gradientUnits="userSpaceOnUse">
<stop offset="0.01" stop-color="#252C54" stop-opacity="0"/>
<stop offset="1" stop-color="#252C54"/>
</linearGradient>
<linearGradient id="paint5_linear_1850_35339" x1="1067.08" y1="1095.36" x2="356.909" y2="354.488" gradientUnits="userSpaceOnUse">
<stop stop-color="#252C54"/>
<stop offset="0.99" stop-color="#252C54" stop-opacity="0"/>
</linearGradient>
<clipPath id="clip0_1850_35339">
<rect width="1400" height="1080" fill="white"/>
</clipPath>
</defs>
</svg>
