<svg width="130" height="55" viewBox="0 0 130 55" fill="none" xmlns="http://www.w3.org/2000/svg">
<path fill-rule="evenodd" clip-rule="evenodd" d="M0 14.4731V26L60 11.1089L31.333 0L32.4795 6.25928L0 14.4731ZM39.8193 45.4883L40 35L0 44.4282L27.9854 55L26.874 49.0249L39.8193 45.4883ZM60 15L0 29.7036V41L60 26.481V15ZM60 43.7273V35H61.581V39.0099H61.6875L65.0923 35H67.0227L63.6477 38.9162L67.0526 43.7273H65.152L62.5483 39.9858L61.581 41.1278V43.7273H60ZM69.2418 43.7273H67.5543L70.6268 35H72.5785L75.6552 43.7273H73.9677L73.2446 41.5753H69.9636L69.2418 43.7273ZM71.6367 36.7898L72.818 40.3054H70.3895L71.5685 36.7898H71.6367ZM76.8047 43.7273V35H78.3857V38.6946H82.4297V35H84.0149V43.7273H82.4297V40.0199H78.3857V43.7273H76.8047ZM85.7344 43.7273V35H89.0071C89.6776 35 90.2401 35.1165 90.6946 35.3494C91.152 35.5824 91.4972 35.9091 91.7301 36.3295C91.9659 36.7472 92.0838 37.2344 92.0838 37.7912C92.0838 38.3509 91.9645 38.8366 91.7259 39.2486C91.4901 39.6577 91.142 39.9744 90.6818 40.1989C90.6279 40.2248 90.5726 40.2493 90.5158 40.2722L92.4034 43.7273H90.6392L88.9241 40.5312H87.3153V43.7273H85.7344ZM88.7727 39.2188H87.3153V36.321H88.7642C89.1591 36.321 89.4815 36.3793 89.7315 36.4957C89.9815 36.6094 90.1676 36.777 90.2898 36.9986C90.4119 37.2173 90.473 37.4815 90.473 37.7912C90.473 38.1009 90.4119 38.3622 90.2898 38.5753C90.1705 38.7855 89.9858 38.946 89.7358 39.0568C89.4858 39.1648 89.1648 39.2188 88.7727 39.2188ZM92.6026 35H94.3881L96.5231 38.8608H96.6083L98.7433 35H100.529L97.354 40.4716V43.7273H95.7773V40.4716L92.6026 35ZM101.648 35H103.583L106.174 41.3239H106.276L108.867 35H110.802V43.7273H109.285V37.7315H109.204L106.792 43.7017H105.658L103.246 37.7188H103.165V43.7273H101.648V35ZM113.644 43.7273H111.957L115.029 35H116.981L120.058 43.7273H118.37L117.647 41.5753H114.366L113.644 43.7273ZM116.039 36.7898L117.22 40.3054H114.792L115.971 36.7898H116.039ZM128.379 35V43.7273H126.973L122.86 37.7827H122.788V43.7273H121.207V35H122.622L126.73 40.9489H126.806V35H128.379ZM94.5256 49.5341V48.9091H98.8892V49.5341H97.0597V54.7273H96.3551V49.5341H94.5256ZM99.9766 54.7273V48.9091H101.942C102.397 48.9091 102.77 48.9867 103.062 49.142C103.353 49.2955 103.569 49.5066 103.71 49.7756C103.85 50.0445 103.92 50.3504 103.92 50.6932C103.92 51.036 103.85 51.34 103.71 51.6051C103.569 51.8703 103.354 52.0786 103.065 52.2301C102.992 52.2674 102.915 52.3001 102.833 52.3281L104.147 54.7273H103.329L102.102 52.4517C102.054 52.4536 102.004 52.4545 101.954 52.4545H100.681V54.7273H99.9766ZM101.931 51.8182H100.681V49.5341H101.92C102.234 49.5341 102.487 49.5824 102.678 49.679C102.87 49.7737 103.009 49.9081 103.096 50.0824C103.183 50.2566 103.227 50.4602 103.227 50.6932C103.227 50.9261 103.183 51.1269 103.096 51.2955C103.011 51.4621 102.872 51.5909 102.681 51.6818C102.492 51.7727 102.242 51.8182 101.931 51.8182ZM105.332 54.7273H104.594L106.73 48.9091H107.457L109.594 54.7273H108.855L108.27 53.0795H105.917L105.332 54.7273ZM107.116 49.8295L108.048 52.4545H106.139L107.071 49.8295H107.116ZM112.295 54.7273H110.5V48.9091H112.375C112.939 48.9091 113.422 49.0256 113.824 49.2585C114.225 49.4896 114.533 49.822 114.747 50.2557C114.961 50.6875 115.068 51.2045 115.068 51.8068C115.068 52.4129 114.96 52.9347 114.744 53.3722C114.528 53.8078 114.214 54.143 113.801 54.3778C113.388 54.6108 112.886 54.7273 112.295 54.7273ZM111.205 54.1023H112.25C112.731 54.1023 113.13 54.0095 113.446 53.8239C113.762 53.6383 113.998 53.3741 114.153 53.0312C114.309 52.6884 114.386 52.2803 114.386 51.8068C114.386 51.3371 114.31 50.9328 114.156 50.5938C114.003 50.2528 113.774 49.9915 113.469 49.8097C113.164 49.6259 112.784 49.5341 112.33 49.5341H111.205V54.1023ZM116.955 54.7273H116.25V48.9091H116.955V54.7273ZM122.981 54.7273H122.299L119.129 50.1591H119.072V54.7273H118.367V48.9091H119.049L122.231 53.4886H122.288V48.9091H122.981V54.7273ZM128.368 50.7273C128.305 50.536 128.223 50.3646 128.121 50.2131C128.02 50.0597 127.9 49.929 127.76 49.821C127.622 49.7131 127.464 49.6307 127.288 49.5739C127.112 49.517 126.919 49.4886 126.709 49.4886C126.364 49.4886 126.051 49.5777 125.768 49.7557C125.486 49.9337 125.262 50.196 125.095 50.5426C124.929 50.8892 124.845 51.3144 124.845 51.8182C124.845 52.322 124.929 52.7472 125.098 53.0938C125.267 53.4403 125.495 53.7027 125.783 53.8807C126.071 54.0587 126.394 54.1477 126.754 54.1477C127.088 54.1477 127.381 54.0767 127.635 53.9347C127.891 53.7907 128.089 53.5881 128.232 53.3267C128.369 53.0747 128.441 52.7802 128.447 52.4432H126.913V51.8182H129.129V52.4432C129.129 52.9223 129.027 53.339 128.822 53.6932C128.62 54.0473 128.339 54.322 127.982 54.517C127.625 54.7102 127.216 54.8068 126.754 54.8068C126.239 54.8068 125.786 54.6856 125.396 54.4432C125.008 54.2008 124.705 53.8561 124.487 53.4091C124.271 52.9621 124.163 52.4318 124.163 51.8182C124.163 51.358 124.225 50.9441 124.348 50.5767C124.473 50.2074 124.649 49.893 124.876 49.6335C125.104 49.3741 125.373 49.1752 125.683 49.0369C125.994 48.8987 126.336 48.8295 126.709 48.8295C127.016 48.8295 127.302 48.8759 127.567 48.9688C127.834 49.0597 128.071 49.1894 128.28 49.358C128.49 49.5246 128.665 49.7244 128.805 49.9574C128.946 50.1884 129.042 50.4451 129.095 50.7273H128.368Z" fill="black"/>
</svg>
