<svg width="26" height="26" viewBox="0 0 26 26" fill="none" xmlns="http://www.w3.org/2000/svg">
<path fill-rule="evenodd" clip-rule="evenodd" d="M0.393639 0.118786C0.291903 0.177722 0.160047 0.312448 0.100569 0.418137C-0.00726248 0.60992 -0.00746565 0.618245 0.00619741 4.29101C0.0196573 7.9185 0.0213842 7.97368 0.124594 8.11181C0.182192 8.18892 0.292411 8.29907 0.369513 8.35664C0.504518 8.45745 0.58162 8.46187 2.46154 8.47629L4.41337 8.49121V4.25025V0.0092389L2.49597 0.0104065C0.638152 0.0115232 0.572834 0.0149244 0.393639 0.118786ZM5.93714 4.31599V8.63198L8.68138 11.1918C10.3103 12.7112 11.5246 13.8054 11.6692 13.884C12.1936 14.1693 12.2342 14.1722 15.6838 14.1722C19.2125 14.1722 19.2027 14.173 19.6663 13.8366C20.6318 13.1363 20.5008 11.6581 19.4224 11.0839L19.1685 10.9487L16.4003 10.9233L13.6321 10.8979L13.2281 10.7051C12.8436 10.5217 12.7448 10.4335 11.1855 8.88183C10.2842 7.9851 9.51178 7.17751 9.46891 7.0872C9.16837 6.45419 9.78138 5.80274 10.4416 6.05361C10.5202 6.08346 11.2359 6.75425 12.0321 7.54417C13.6856 9.18469 13.6781 9.17966 14.413 9.1358C15.0333 9.09875 15.5083 8.78706 15.7766 8.24105C15.9651 7.85738 15.9782 7.22421 15.8054 6.84862C15.7175 6.65744 15.0734 5.99036 12.7417 3.67592C10.8571 1.80514 9.6668 0.662155 9.45047 0.515399C9.26412 0.388948 8.95164 0.230313 8.75609 0.16295C8.42686 0.0494941 8.30938 0.0389354 7.16884 0.0202038L5.93714 0V4.31599ZM22.9989 4.52336C22.3544 4.72631 22.2426 5.55085 22.8123 5.89802C23.0422 6.03813 23.3969 6.03234 23.6128 5.88508C23.8083 5.75172 23.9683 5.47715 23.9683 5.27506C23.9683 4.79205 23.4419 4.38381 22.9989 4.52336ZM18.8637 5.3643C18.2554 5.58116 18.1793 6.44723 18.7429 6.73856C19.2564 7.00395 19.8626 6.64445 19.8626 6.07453C19.8626 5.54025 19.3642 5.18592 18.8637 5.3643ZM21.5933 8.28339C21.0682 8.60335 21.1116 9.36749 21.6688 9.61384C21.9842 9.75329 22.2443 9.70212 22.4953 9.4512C22.7464 9.20027 22.7976 8.94037 22.6581 8.62513C22.4765 8.21486 21.9716 8.05282 21.5933 8.28339ZM2.04743 11.5076C1.73993 11.6649 1.06216 12.2447 0.760256 12.6089C0.0425645 13.4743 -0.154306 14.3286 0.120226 15.3862C0.311255 16.122 0.796827 16.8099 1.3596 17.1418L1.61778 17.2941L1.61879 20.8856L1.61981 24.4771H1.10686C0.527324 24.4771 0.314404 24.5465 0.139069 24.7926C-0.11677 25.1516 0.00695929 25.6712 0.401004 25.8925L0.592389 26H12.9935C25.0694 26 25.3995 25.9975 25.5834 25.9037C25.9794 25.7018 26.1134 25.1547 25.8554 24.7926C25.6801 24.5465 25.4671 24.4771 24.8876 24.4771H24.3747V20.8855V17.294L24.6006 17.1741C25.3637 16.7695 26 15.5567 26 14.5068C26 13.8619 25.7415 13.2215 25.234 12.6089C24.9174 12.2268 24.2335 11.6483 23.9257 11.5023C23.5023 11.3015 23.0521 11.527 22.2332 12.3501C21.815 12.7703 21.7062 12.9161 21.4977 13.3358C21.2609 13.8127 21.2525 13.8451 21.2336 14.353C21.2092 15.0135 21.3109 15.4988 21.5913 16.0586C21.8252 16.5256 22.2312 16.9673 22.6102 17.1671L22.8509 17.294V20.8855V24.4771H20.3367H17.8225V23.1367V21.7964L18.0912 21.6448C18.4642 21.4344 18.9019 20.9448 19.1119 20.5032C19.3755 19.9489 19.463 19.5106 19.4398 18.8596C19.4224 18.3701 19.4025 18.2717 19.2594 17.9677C18.953 17.3169 18.4886 16.7601 17.8694 16.3013C17.2194 15.8198 16.9724 15.8002 16.4378 16.1877C15.4804 16.8816 14.8658 17.7261 14.7185 18.5498C14.5149 19.6883 15.1521 21.1531 16.0602 21.6347L16.2987 21.7611V23.1191V24.4771H12.9972H9.69575V23.1159V21.7547L9.87835 21.6677C10.4536 21.3935 10.977 20.6752 11.1978 19.8568C11.3187 19.4088 11.3239 18.6028 11.2084 18.2332C11.0087 17.5948 10.3811 16.8037 9.63434 16.2493C9.03164 15.8017 8.78804 15.8044 8.17427 16.2655C7.49757 16.7738 7.04689 17.3056 6.73874 17.9595C6.58986 18.2752 6.57199 18.3638 6.55563 18.8678C6.53389 19.5365 6.61871 19.9591 6.88649 20.5162C7.09504 20.95 7.59707 21.4956 7.95612 21.6787L8.17199 21.7887V23.1329V24.4771H5.65778H3.14357V20.8855V17.294L3.38483 17.1684C3.76511 16.9706 4.17297 16.522 4.41063 16.0402C4.68699 15.48 4.78436 15.0003 4.75658 14.3362C4.7356 13.8358 4.72503 13.7955 4.49337 13.3291C4.28975 12.9191 4.17541 12.7657 3.76131 12.3466C2.9562 11.5319 2.46758 11.2926 2.04743 11.5076Z" fill="#3E4A96"/>
</svg>
