<svg width="25" height="24" viewBox="0 0 25 24" fill="none" xmlns="http://www.w3.org/2000/svg">
<path fill-rule="evenodd" clip-rule="evenodd" d="M7.79859 1.22918L6.92871 1.44144L6.41092 1.32627C5.6397 1.15478 5.35803 1.18975 5.05067 1.49531C4.77554 1.76878 4.73631 1.90359 4.7199 2.63152L4.70516 3.28664H12.5001H20.2951L20.2803 2.63152C20.2639 1.90359 20.2247 1.76878 19.9496 1.49531C19.6426 1.19013 19.333 1.15237 18.5893 1.32936L18.1129 1.44273L17.1742 1.22158L16.2356 1.00043L15.3021 1.22321L14.3685 1.44604L13.4372 1.22304L12.506 1L11.57 1.22227L10.634 1.44458L9.71942 1.22721C9.21638 1.10765 8.77411 1.01143 8.73662 1.0134C8.69913 1.01534 8.27703 1.11247 7.79859 1.22918ZM4.42348 4.8224C4.18513 5.45217 3.86303 6.52008 3.67571 7.30145C2.86668 10.6759 2.81312 14.26 3.51864 17.8066C3.65049 18.4694 3.65276 18.6894 3.53148 19.0531C3.42382 19.376 3.20767 19.6344 2.82836 19.8934C2.43907 20.1593 2.28042 20.3412 2.11328 20.7133C2.01709 20.9275 2.00056 21.0208 2.00002 21.3529C1.9994 21.7162 2.00955 21.7631 2.15449 22.0673C2.33808 22.4525 2.54316 22.66 2.92629 22.8483L3.20063 22.9831L12.3938 22.9943C22.5514 23.0067 21.8473 23.0253 22.2888 22.7324C22.5638 22.5499 22.7112 22.3693 22.8727 22.0165C22.9862 21.7684 23.0004 21.6942 23 21.3507C22.9996 21.0207 22.983 20.9273 22.8869 20.7133C22.7198 20.3412 22.5612 20.1593 22.1719 19.8934C21.7925 19.6344 21.5764 19.376 21.4687 19.0531C21.3451 18.6824 21.3472 18.4676 21.4809 17.8054C22.1795 14.3442 22.1324 10.7361 21.3447 7.38195C21.1574 6.58434 20.8894 5.6814 20.6295 4.97276L20.4838 4.57539H12.5004H4.51697L4.42348 4.8224ZM13.7096 7.19465C16.0621 7.7099 17.8774 9.59844 18.3898 12.0636C18.5208 12.694 18.5208 13.8979 18.3898 14.5284C17.8754 17.0032 16.0748 18.8705 13.6885 19.4039C13.0806 19.5398 11.9196 19.5398 11.3118 19.4039C8.92443 18.8703 7.12505 17.0042 6.61045 14.5284C6.47939 13.8979 6.47939 12.694 6.61045 12.0636C7.16026 9.41823 9.1692 7.48394 11.7545 7.11067C12.1873 7.04821 13.2492 7.09379 13.7096 7.19465ZM11.8166 8.40338C10.0043 8.67419 8.43315 10.0974 7.92758 11.9261C7.2818 14.262 8.3634 16.7345 10.4813 17.7637C10.8252 17.9309 11.3758 18.1141 11.7035 18.1706L11.8803 18.201L11.8692 17.2037L11.8581 16.2063L11.5498 16.1233C10.0324 15.7147 8.95247 14.334 8.86789 12.6945C8.84084 12.1704 8.92497 11.6054 9.0591 11.41C9.16021 11.2627 9.37839 11.148 9.55742 11.148C9.80537 11.148 10.6983 11.4116 11.071 11.5948C11.507 11.8092 11.9941 12.1969 12.2723 12.5511C12.3807 12.689 12.4825 12.8019 12.4986 12.8019C12.5147 12.8019 12.625 12.6809 12.7437 12.533C13.2225 11.9363 13.9327 11.5045 14.807 11.2785C15.3844 11.1293 15.5175 11.1204 15.7153 11.2178C15.9292 11.323 16.0211 11.4926 16.0919 11.912C16.4063 13.7765 15.2342 15.643 13.4465 16.1244L13.1422 16.2063L13.131 17.2037L13.1199 18.201L13.2967 18.1706C13.6756 18.1053 14.1963 17.9252 14.6012 17.7191C16.9243 16.5371 17.9086 13.6377 16.8113 11.2091C15.9253 9.24846 13.8737 8.09592 11.8166 8.40338ZM10.1158 12.8127C10.2343 13.6888 10.7788 14.4274 11.5557 14.766C11.7147 14.8353 11.8554 14.881 11.8684 14.8676C11.9182 14.8158 11.7588 14.1621 11.6264 13.8757C11.4335 13.4585 10.9728 12.98 10.558 12.7662C10.3898 12.6796 10.2153 12.6086 10.1701 12.6086C10.0961 12.6086 10.0908 12.6283 10.1158 12.8127ZM14.4564 12.762C13.7527 13.1171 13.2461 13.8503 13.1419 14.6643C13.1129 14.8911 13.1138 14.8938 13.2102 14.8639C13.2639 14.8474 13.4441 14.7668 13.6106 14.6849C14.2662 14.3627 14.7787 13.616 14.8809 12.8342C14.9177 12.5528 14.8828 12.5469 14.4564 12.762Z" fill="#3E4A96"/>
<path fill-rule="evenodd" clip-rule="evenodd" d="M7.79859 1.22918L6.92871 1.44144L6.41092 1.32627C5.6397 1.15478 5.35803 1.18975 5.05067 1.49531C4.77554 1.76878 4.73631 1.90359 4.7199 2.63152L4.70516 3.28664H12.5001H20.2951L20.2803 2.63152C20.2639 1.90359 20.2247 1.76878 19.9496 1.49531C19.6426 1.19013 19.333 1.15237 18.5893 1.32936L18.1129 1.44273L17.1742 1.22158L16.2356 1.00043L15.3021 1.22321L14.3685 1.44604L13.4372 1.22304L12.506 1L11.57 1.22227L10.634 1.44458L9.71942 1.22721C9.21638 1.10765 8.77411 1.01143 8.73662 1.0134C8.69913 1.01534 8.27703 1.11247 7.79859 1.22918ZM4.42348 4.8224C4.18513 5.45217 3.86303 6.52008 3.67571 7.30145C2.86668 10.6759 2.81312 14.26 3.51864 17.8066C3.65049 18.4694 3.65276 18.6894 3.53148 19.0531C3.42382 19.376 3.20767 19.6344 2.82836 19.8934C2.43907 20.1593 2.28042 20.3412 2.11328 20.7133C2.01709 20.9275 2.00056 21.0208 2.00002 21.3529C1.9994 21.7162 2.00955 21.7631 2.15449 22.0673C2.33808 22.4525 2.54316 22.66 2.92629 22.8483L3.20063 22.9831L12.3938 22.9943C22.5514 23.0067 21.8473 23.0253 22.2888 22.7324C22.5638 22.5499 22.7112 22.3693 22.8727 22.0165C22.9862 21.7684 23.0004 21.6942 23 21.3507C22.9996 21.0207 22.983 20.9273 22.8869 20.7133C22.7198 20.3412 22.5612 20.1593 22.1719 19.8934C21.7925 19.6344 21.5764 19.376 21.4687 19.0531C21.3451 18.6824 21.3472 18.4676 21.4809 17.8054C22.1795 14.3442 22.1324 10.7361 21.3447 7.38195C21.1574 6.58434 20.8894 5.6814 20.6295 4.97276L20.4838 4.57539H12.5004H4.51697L4.42348 4.8224ZM13.7096 7.19465C16.0621 7.7099 17.8774 9.59844 18.3898 12.0636C18.5208 12.694 18.5208 13.8979 18.3898 14.5284C17.8754 17.0032 16.0748 18.8705 13.6885 19.4039C13.0806 19.5398 11.9196 19.5398 11.3118 19.4039C8.92443 18.8703 7.12505 17.0042 6.61045 14.5284C6.47939 13.8979 6.47939 12.694 6.61045 12.0636C7.16026 9.41823 9.1692 7.48394 11.7545 7.11067C12.1873 7.04821 13.2492 7.09379 13.7096 7.19465ZM11.8166 8.40338C10.0043 8.67419 8.43315 10.0974 7.92758 11.9261C7.2818 14.262 8.3634 16.7345 10.4813 17.7637C10.8252 17.9309 11.3758 18.1141 11.7035 18.1706L11.8803 18.201L11.8692 17.2037L11.8581 16.2063L11.5498 16.1233C10.0324 15.7147 8.95247 14.334 8.86789 12.6945C8.84084 12.1704 8.92497 11.6054 9.0591 11.41C9.16021 11.2627 9.37839 11.148 9.55742 11.148C9.80537 11.148 10.6983 11.4116 11.071 11.5948C11.507 11.8092 11.9941 12.1969 12.2723 12.5511C12.3807 12.689 12.4825 12.8019 12.4986 12.8019C12.5147 12.8019 12.625 12.6809 12.7437 12.533C13.2225 11.9363 13.9327 11.5045 14.807 11.2785C15.3844 11.1293 15.5175 11.1204 15.7153 11.2178C15.9292 11.323 16.0211 11.4926 16.0919 11.912C16.4063 13.7765 15.2342 15.643 13.4465 16.1244L13.1422 16.2063L13.131 17.2037L13.1199 18.201L13.2967 18.1706C13.6756 18.1053 14.1963 17.9252 14.6012 17.7191C16.9243 16.5371 17.9086 13.6377 16.8113 11.2091C15.9253 9.24846 13.8737 8.09592 11.8166 8.40338ZM10.1158 12.8127C10.2343 13.6888 10.7788 14.4274 11.5557 14.766C11.7147 14.8353 11.8554 14.881 11.8684 14.8676C11.9182 14.8158 11.7588 14.1621 11.6264 13.8757C11.4335 13.4585 10.9728 12.98 10.558 12.7662C10.3898 12.6796 10.2153 12.6086 10.1701 12.6086C10.0961 12.6086 10.0908 12.6283 10.1158 12.8127ZM14.4564 12.762C13.7527 13.1171 13.2461 13.8503 13.1419 14.6643C13.1129 14.8911 13.1138 14.8938 13.2102 14.8639C13.2639 14.8474 13.4441 14.7668 13.6106 14.6849C14.2662 14.3627 14.7787 13.616 14.8809 12.8342C14.9177 12.5528 14.8828 12.5469 14.4564 12.762Z" fill="#3E4A96"/>
</svg>
