<svg width="20" height="22" viewBox="0 0 20 22" fill="none" xmlns="http://www.w3.org/2000/svg">
<path d="M15.4815 11.7506C15.3839 11.6493 15.2679 11.5689 15.1402 11.5141C15.0126 11.4592 14.8757 11.431 14.7375 11.431C14.5993 11.431 14.4625 11.4592 14.3348 11.5141C14.2072 11.5689 14.0912 11.6493 13.9936 11.7506L12.3162 13.488C11.5386 13.2482 10.0875 12.7032 9.16776 11.7506C8.24806 10.798 7.72192 9.29488 7.49042 8.48939L9.16776 6.75196C9.26557 6.65083 9.34316 6.53071 9.3961 6.39848C9.44904 6.26625 9.47629 6.1245 9.47629 5.98135C9.47629 5.8382 9.44904 5.69646 9.3961 5.56422C9.34316 5.43199 9.26557 5.31187 9.16776 5.21074L4.95861 0.850832C4.86097 0.749524 4.745 0.669151 4.61735 0.614314C4.48969 0.559476 4.35284 0.53125 4.21464 0.53125C4.07644 0.53125 3.9396 0.559476 3.81194 0.614314C3.68428 0.669151 3.56831 0.749524 3.47067 0.850832L0.616869 3.80685C0.216999 4.22104 -0.00819044 4.79001 0.000227867 5.37096C0.0244305 6.92309 0.421143 12.3141 4.52296 16.5628C8.62478 20.8116 13.8294 21.2214 15.3289 21.2476H15.3584C15.914 21.2476 16.4391 21.0208 16.8368 20.6088L19.6906 17.6528C19.7885 17.5517 19.866 17.4316 19.919 17.2993C19.9719 17.1671 19.9992 17.0254 19.9992 16.8822C19.9992 16.7391 19.9719 16.5973 19.919 16.4651C19.866 16.3328 19.7885 16.2127 19.6906 16.1116L15.4815 11.7506ZM15.3479 19.0665C14.0346 19.0436 9.54132 18.6785 6.0109 15.0205C2.4689 11.3517 2.12585 6.68112 2.1048 5.34807L4.21464 3.16267L6.93586 5.98135L5.57525 7.39069C5.45157 7.51871 5.36063 7.67663 5.31066 7.85019C5.26068 8.02375 5.25325 8.20747 5.28903 8.38475C5.31428 8.5101 5.93198 11.4825 7.67877 13.2918C9.42557 15.1012 12.2952 15.741 12.4162 15.7672C12.5872 15.8053 12.7648 15.7982 12.9325 15.7466C13.1002 15.6949 13.2527 15.6004 13.3759 15.4718L14.7375 14.0624L17.4587 16.8811L15.3479 19.0665Z" fill="#252C54"/>
</svg>
