<svg width="30" height="30" viewBox="0 0 30 30" fill="none" xmlns="http://www.w3.org/2000/svg">
<circle cx="15" cy="15" r="15" fill="white"/>
<path d="M19 7H11C8.79086 7 7 8.79086 7 11V19C7 21.2091 8.79086 23 11 23H19C21.2091 23 23 21.2091 23 19V11C23 8.79086 21.2091 7 19 7Z" stroke="#252C54" stroke-linecap="round" stroke-linejoin="round"/>
<path d="M18.1999 14.4958C18.2986 15.1616 18.1849 15.8415 17.8749 16.439C17.5649 17.0364 17.0744 17.5209 16.4732 17.8235C15.8719 18.1261 15.1906 18.2314 14.5261 18.1245C13.8616 18.0176 13.2477 17.7038 12.7717 17.2279C12.2958 16.7519 11.982 16.1381 11.8751 15.4735C11.7682 14.809 11.8735 14.1277 12.1761 13.5265C12.4787 12.9252 12.9632 12.4347 13.5607 12.1247C14.1581 11.8147 14.8381 11.701 15.5039 11.7998C16.183 11.9005 16.8117 12.2169 17.2972 12.7024C17.7827 13.1879 18.0992 13.8166 18.1999 14.4958Z" stroke="#252C54" stroke-linecap="round" stroke-linejoin="round"/>
<path d="M19.3999 10.6001H19.4097" stroke="#252C54" stroke-linecap="round" stroke-linejoin="round"/>
</svg>
