<svg width="30" height="30" viewBox="0 0 30 30" fill="none" xmlns="http://www.w3.org/2000/svg">
<circle cx="15" cy="15" r="15" fill="white"/>
<path d="M9.83911 7.53435C9.90781 7.75173 9.92737 8.03912 9.89086 8.32991C9.85411 8.62253 9.76586 8.87719 9.65652 9.03971C9.37628 9.45602 8.87207 9.71597 8.31892 9.76378C7.76575 9.8116 7.2251 9.64196 6.87856 9.28013C5.95347 8.3142 6.44331 6.71405 7.70148 6.44526L7.7015 6.44526C8.67135 6.23802 9.59359 6.75756 9.83911 7.53435ZM9.83911 7.53435L10.2193 7.41421L9.83911 7.53435ZM16.7494 13.2901L16.4394 13.7227L15.7524 14.6816L15.7145 13.5027L15.6884 12.6953L15.6749 12.2751H14.1303H12.5999L12.6215 17.9107L12.6432 23.5545L14.1585 23.5747L15.6645 23.5947L15.688 20.1664L16.0309 20.1688L15.688 20.1664C15.7001 18.4072 15.7099 17.4331 15.7366 16.8618C15.7631 16.294 15.8067 16.0609 15.9257 15.8277L15.9257 15.8277C16.1607 15.3669 16.468 14.9978 16.8555 14.7436C17.2448 14.4883 17.6932 14.3635 18.1851 14.3587L16.7494 13.2901ZM16.7494 13.2901C16.7494 13.2901 16.7494 13.2901 16.7494 13.29C17.0746 12.8364 17.7213 12.3538 18.294 12.1472C18.5007 12.0727 18.9278 12.0142 19.4161 11.9994C19.8985 11.9848 20.3672 12.0149 20.6447 12.0817L20.6448 12.0817C21.6165 12.3156 22.5376 13.0745 22.9837 14.0229L22.9869 14.0296C23.2702 14.6319 23.3916 14.8899 23.4615 15.5548C23.5362 16.2654 23.5457 17.4028 23.565 19.7496L23.5967 23.5946L22.0871 23.5747L20.5592 23.5545L20.5188 20.1391L20.4738 16.3336L20.4728 16.2467L20.4358 16.1681L20.1817 15.6277L16.7494 13.2901ZM6.66032 17.9357V12.2751H8.15011H9.63991V17.9357V23.5962H8.15011H6.66032V17.9357Z" stroke="black" stroke-width="0.8"/>
</svg>
