<svg width="30" height="30" viewBox="0 0 30 30" fill="none" xmlns="http://www.w3.org/2000/svg">
<circle cx="15" cy="15" r="15" fill="white"/>
<path d="M8.96591 20H8.07702V20.8889H8.96591V20ZM8.96591 11.2727V10.3838H8.07702V11.2727H8.96591ZM11.3864 11.2727H12.2753V10.3838H11.3864V11.2727ZM11.3864 20V20.8889H12.2753V20H11.3864ZM9.25568 9.78977L8.64163 10.4326L8.65157 10.4418L9.25568 9.78977ZM9.25568 8.0625L9.86459 8.71007L9.8649 8.70979L9.25568 8.0625ZM11.1023 8.0625L10.4882 8.70534L10.4982 8.71456L11.1023 8.0625ZM11.1023 9.78977L11.7112 10.4373L11.7115 10.4371L11.1023 9.78977ZM9.8548 20V11.2727H8.07702V20H9.8548ZM8.96591 12.1616H11.3864V10.3838H8.96591V12.1616ZM10.4975 11.2727V20H12.2753V11.2727H10.4975ZM11.3864 19.1111H8.96591V20.8889H11.3864V19.1111ZM10.1818 9.25884C10.0398 9.25884 9.94857 9.21997 9.85979 9.13772L8.65157 10.4418C9.07794 10.8368 9.60411 11.0366 10.1818 11.0366V9.25884ZM9.86967 9.14701C9.78335 9.06456 9.76389 9.00379 9.76389 8.92045H7.98611C7.98611 9.51137 8.22043 10.0301 8.6417 10.4325L9.86967 9.14701ZM9.76389 8.92045C9.76389 8.84453 9.7804 8.78924 9.86459 8.71007L8.64677 7.41493C8.22339 7.81303 7.98611 8.32971 7.98611 8.92045H9.76389ZM9.8649 8.70979C9.95443 8.62552 10.044 8.58775 10.1818 8.58775V6.80997C9.5999 6.80997 9.07208 7.01463 8.64647 7.41521L9.8649 8.70979ZM10.1818 8.58775C10.3194 8.58775 10.4045 8.6252 10.4883 8.70526L11.7163 7.41974C11.2925 7.01495 10.7639 6.80997 10.1818 6.80997V8.58775ZM10.4982 8.71456C10.5851 8.79508 10.5997 8.84914 10.5997 8.92045H12.3775C12.3775 8.3251 12.1346 7.80719 11.7064 7.41044L10.4982 8.71456ZM10.5997 8.92045C10.5997 8.99924 10.582 9.05874 10.4931 9.14248L11.7115 10.4371C12.1377 10.036 12.3775 9.51591 12.3775 8.92045H10.5997ZM10.4934 9.1422C10.4103 9.22026 10.3236 9.25884 10.1818 9.25884V11.0366C10.7597 11.0366 11.2866 10.8366 11.7112 10.4373L10.4934 9.1422ZM15.7457 14.9545L14.8568 14.9456V14.9545H15.7457ZM15.7457 20V20.8889H16.6346V20H15.7457ZM13.3253 20H12.4364V20.8889H13.3253V20ZM13.3253 11.2727V10.3838H12.4364V11.2727H13.3253ZM15.6321 11.2727H16.521V10.3838H15.6321V11.2727ZM15.6321 12.8125H14.7432V13.7014H15.6321V12.8125ZM15.7344 12.8125V13.7014H16.3472L16.5651 13.1287L15.7344 12.8125ZM16.706 11.608L17.1904 12.3533L17.1947 12.3504L16.706 11.608ZM19.9446 11.5568L20.3953 10.7907L19.9446 11.5568ZM20.9957 12.6932L20.2031 13.0956L20.2044 13.098L20.9957 12.6932ZM21.3707 20V20.8889H22.2596V20H21.3707ZM18.9503 20H18.0614V20.8889H18.9503V20ZM18.9503 14.875L18.0614 14.8687V14.875H18.9503ZM18.5412 13.625L17.8846 14.2242L17.8884 14.2283L18.5412 13.625ZM16.5355 13.3807L16.1008 12.6053L16.0958 12.6082L16.5355 13.3807ZM15.956 13.9943L15.1677 13.5835L15.1655 13.5878L15.956 13.9943ZM14.8568 14.9545V20H16.6346V14.9545H14.8568ZM15.7457 19.1111H13.3253V20.8889H15.7457V19.1111ZM14.2142 20V11.2727H12.4364V20H14.2142ZM13.3253 12.1616H15.6321V10.3838H13.3253V12.1616ZM14.7432 11.2727V12.8125H16.521V11.2727H14.7432ZM15.6321 13.7014H15.7344V11.9236H15.6321V13.7014ZM16.5651 13.1287C16.6914 12.7969 16.8942 12.5458 17.1904 12.3532L16.2215 10.8627C15.6087 11.261 15.1637 11.813 14.9036 12.4963L16.5651 13.1287ZM17.1947 12.3504C17.4785 12.1636 17.8518 12.048 18.3594 12.048V10.2702C17.5715 10.2702 16.8426 10.4538 16.2172 10.8655L17.1947 12.3504ZM18.3594 12.048C18.8325 12.048 19.2002 12.1502 19.4939 12.323L20.3953 10.7907C19.7875 10.4331 19.0984 10.2702 18.3594 10.2702V12.048ZM19.4939 12.323C19.7899 12.4971 20.0255 12.7457 20.2031 13.0956L21.7883 12.2908C21.466 11.6558 21.0008 11.1468 20.3953 10.7907L19.4939 12.323ZM20.2044 13.098C20.3769 13.4353 20.4818 13.8734 20.4818 14.4432H22.2596C22.2596 13.6569 22.1145 12.9283 21.7871 12.2883L20.2044 13.098ZM20.4818 14.4432V20H22.2596V14.4432H20.4818ZM21.3707 19.1111H18.9503V20.8889H21.3707V19.1111ZM19.8392 20V14.875H18.0614V20H19.8392ZM19.8392 14.8813C19.844 14.1937 19.6666 13.5332 19.194 13.0217L17.8884 14.2283C17.9688 14.3153 18.0641 14.4882 18.0614 14.8687L19.8392 14.8813ZM19.1978 13.0258C18.7221 12.5045 18.0843 12.2816 17.3991 12.2816V14.0593C17.6837 14.0593 17.8073 14.1394 17.8846 14.2242L19.1978 13.0258ZM17.3991 12.2816C16.9423 12.2816 16.5009 12.3811 16.1008 12.6053L16.9702 14.156C17.0701 14.1 17.2045 14.0593 17.3991 14.0593V12.2816ZM16.0958 12.6082C15.6904 12.8389 15.381 13.1742 15.1677 13.5835L16.7442 14.4051C16.8112 14.2766 16.8882 14.2028 16.9752 14.1532L16.0958 12.6082ZM15.1655 13.5878C14.9516 14.0036 14.8617 14.467 14.8569 14.9456L16.6346 14.9635C16.6373 14.6921 16.6876 14.5154 16.7464 14.4008L15.1655 13.5878Z" fill="black"/>
</svg>
