<svg width="30" height="30" viewBox="0 0 30 30" fill="none" xmlns="http://www.w3.org/2000/svg">
<circle cx="15" cy="15" r="15" fill="white"/>
<path d="M24 8.00785C23.2165 8.53487 22.349 8.93795 21.4309 9.20158C20.9382 8.66129 20.2833 8.27834 19.5548 8.10454C18.8264 7.93073 18.0596 7.97445 17.3581 8.22978C16.6565 8.48511 16.0542 8.93974 15.6324 9.53217C15.2107 10.1246 14.9899 10.8263 15 11.5422V12.3225C13.5622 12.358 12.1374 12.0539 10.8526 11.4373C9.56788 10.8206 8.46299 9.91052 7.63636 8.78806C7.63636 8.78806 4.36364 15.81 11.7273 18.9309C10.0422 20.0216 8.03495 20.5685 6 20.4913C13.3636 24.3924 22.3636 20.4913 22.3636 11.5188C22.3629 11.3015 22.341 11.0847 22.2982 10.8712C23.1332 10.086 23.7225 9.09447 24 8.00785V8.00785Z" stroke="#252C54" stroke-linecap="round" stroke-linejoin="round"/>
</svg>
