<svg width="22" height="23" viewBox="0 0 22 23" fill="none" xmlns="http://www.w3.org/2000/svg">
<path d="M2.9223 0.920405L2.92232 0.920402C2.94836 0.914471 2.98774 0.911366 3.02491 0.908987C3.06716 0.906284 3.12261 0.903735 3.18978 0.901309C3.32433 0.896449 3.50951 0.891956 3.7376 0.887814C4.19398 0.879527 4.82479 0.872602 5.57158 0.867038C7.06531 0.855909 9.02466 0.850216 10.9841 0.850006C12.9436 0.849796 14.9035 0.855068 16.3983 0.865877C17.1457 0.87128 17.7772 0.87807 18.2344 0.886259C18.4629 0.890352 18.6485 0.894806 18.7835 0.899636C18.851 0.902048 18.9066 0.904584 18.9491 0.907276C18.9868 0.909662 19.026 0.912751 19.0519 0.918511L19.0193 1.06493L19.0519 0.918513C20.0431 1.13902 20.8742 2.01586 21.0823 3.04719C21.0874 3.07279 21.0904 3.11234 21.0928 3.15279C21.0955 3.19745 21.098 3.25597 21.1003 3.32689C21.1051 3.46888 21.1095 3.66381 21.1136 3.90366C21.1217 4.38353 21.1284 5.04565 21.1338 5.82895C21.1446 7.39568 21.15 9.44874 21.15 11.5016C21.15 13.5545 21.1446 15.6076 21.1338 17.1743C21.1284 17.9576 21.1217 18.6197 21.1136 19.0996C21.1095 19.3394 21.1051 19.5344 21.1003 19.6764C21.098 19.7473 21.0955 19.8058 21.0928 19.8505C21.0904 19.8909 21.0874 19.9305 21.0823 19.9561C20.9229 20.7459 20.3837 21.4802 19.6937 21.8379L19.6786 21.8457C19.5451 21.9149 19.4322 21.9735 19.2996 22.0176C19.1602 22.0641 19.0044 22.0931 18.7799 22.112C18.3439 22.1487 17.6186 22.1489 16.1926 22.1493L16.1222 22.1493L13.4959 22.15L13.3458 22.15V22V18.0631V14.1262V13.9762H13.4958H14.7039C15.2644 13.9762 15.5612 13.9748 15.721 13.9655C15.7585 13.9633 15.7852 13.9608 15.8038 13.9584C15.8482 13.7859 15.9783 13.2529 16.1066 12.7213C16.1802 12.4164 16.2525 12.1147 16.3064 11.8873C16.3265 11.8026 16.344 11.7284 16.3581 11.6681C16.2879 11.6655 16.1979 11.663 16.0915 11.6608C15.8167 11.6551 15.437 11.6516 15.0189 11.6516H13.4958H13.3458V11.5016V9.84937C13.3458 8.93453 13.3486 8.43642 13.3824 8.1195C13.3996 7.9581 13.4253 7.83707 13.4653 7.72795C13.5051 7.61935 13.5567 7.5289 13.617 7.42991C13.617 7.4299 13.617 7.4299 13.617 7.42989L13.7451 7.50794C13.8737 7.29695 14.1197 7.05532 14.3141 6.94911L2.9223 0.920405ZM2.9223 0.920405C2.17929 1.0897 1.47865 1.66623 1.14439 2.37739L2.9223 0.920405ZM8.64707 13.9762H9.74676H10.9965H11.1465V14.1262V18.0631V22V22.15L10.9964 22.15L7.12043 22.1493C6.96863 22.1493 6.82231 22.1493 6.68127 22.1492C4.80975 22.1491 3.8657 22.149 3.32808 22.1157C3.03751 22.0976 2.85478 22.0695 2.70379 22.0223C2.57441 21.9819 2.47194 21.9282 2.35571 21.8673C2.33729 21.8577 2.31852 21.8479 2.29925 21.8379C1.60921 21.4802 1.06995 20.7459 0.91062 19.9561L1.0576 19.9264L0.910619 19.9561C0.89533 19.8803 0.885555 19.7479 0.877938 19.4962C0.870189 19.2402 0.864553 18.8498 0.860467 18.2497C0.852291 17.0489 0.85029 15.0033 0.85029 11.5016C0.85029 10.9224 0.850207 10.3827 0.850129 9.87978C0.849599 6.44254 0.849333 4.72012 0.877713 3.80125C0.893915 3.27666 0.919589 3.00132 0.963817 2.81482C0.99825 2.66963 1.04622 2.57446 1.0969 2.4739C1.11258 2.44279 1.12851 2.41117 1.14439 2.3774L8.64707 13.9762ZM8.64707 13.9762V12.8139V11.6516H9.7443H10.9915H11.1404L11.1415 11.5028L11.1564 9.60613C11.1704 7.82638 11.1779 7.70057 11.2491 7.4167C11.6228 5.9275 12.6492 4.84023 14.0653 4.42456C14.322 4.34919 14.4454 4.33716 15.4216 4.32112L8.64707 13.9762ZM19.5866 20.1924L19.5866 20.1924C19.6164 20.1474 19.639 20.1174 19.6568 20.0936C19.6932 20.0451 19.7104 20.0223 19.7305 19.9505C19.7633 19.8338 19.7878 19.616 19.8032 19.1081C19.8297 18.2394 19.8294 16.5713 19.8288 13.2278C19.8287 12.696 19.8286 12.1218 19.8286 11.5016C19.8286 10.8815 19.8287 10.3073 19.8288 9.77541C19.8294 6.43198 19.8297 4.76387 19.8032 3.89517C19.7878 3.38727 19.7633 3.16941 19.7305 3.05272C19.7104 2.98093 19.6932 2.95813 19.6568 2.90966C19.639 2.88585 19.6165 2.85586 19.5866 2.81083C19.4299 2.57413 19.1388 2.35168 18.8932 2.27532L18.9376 2.13226L18.8932 2.27531C18.8715 2.26857 18.8012 2.25758 18.5761 2.24902C18.359 2.24077 18.0133 2.23486 17.457 2.23079C16.3451 2.22265 14.3985 2.22188 10.971 2.22376C7.68145 2.22557 5.73397 2.22886 4.59027 2.23783C4.01819 2.24232 3.64858 2.24823 3.41312 2.25602C3.29523 2.25992 3.21277 2.26424 3.15613 2.26891C3.09944 2.27359 3.07933 2.27793 3.07692 2.27845C3.07672 2.27849 3.07664 2.27851 3.07668 2.2785C2.85095 2.35308 2.55669 2.58361 2.40626 2.81083M19.5866 20.1924L14.8208 8.03134C14.8215 8.03083 14.8222 8.03031 14.8229 8.02977C14.8373 8.01921 14.8604 8.00224 15.0378 7.99104C15.2245 7.97925 15.551 7.97471 16.1626 7.96903L17.4806 7.95673L17.6292 7.95534V7.80673V5.44649V3.08628V2.93437L17.4773 2.93629L15.925 2.95598C14.5327 2.97366 14.3224 2.98378 13.9611 3.06717L13.9611 3.06717C12.1697 3.48078 10.7272 4.80137 10.148 6.55672L10.2904 6.60373L10.148 6.55673C9.90351 7.29761 9.86674 7.62204 9.84254 9.08928L9.82281 10.2855L8.73448 10.2951L7.49991 10.3059L7.35122 10.3072V10.4559V12.8139V15.172V15.3207L7.49991 15.322L8.73984 15.3328L9.83108 15.3423V18.0637V20.7838H6.61878C6.47831 20.7838 6.34339 20.7838 6.21378 20.7838C4.61286 20.784 3.82184 20.7841 3.38731 20.7535C3.15317 20.737 3.03832 20.7123 2.96133 20.6813C2.89626 20.6551 2.85361 20.6236 2.77697 20.567C2.76259 20.5564 2.747 20.5449 2.72985 20.5323L2.72983 20.5323C2.6276 20.4577 2.47783 20.3006 2.40627 20.1924L2.40626 20.1924C2.37645 20.1474 2.35393 20.1174 2.33606 20.0936C2.29966 20.0451 2.28255 20.0223 2.26239 19.9505C2.22964 19.8338 2.20512 19.616 2.18967 19.1081C2.16324 18.2394 2.16353 16.5714 2.16411 13.2281C2.1642 12.6962 2.1643 12.1219 2.1643 11.5016C2.1643 10.8814 2.1642 10.3071 2.16411 9.77515C2.16353 6.43189 2.16324 4.76384 2.18967 3.89517C2.20512 3.38727 2.22964 3.16941 2.26239 3.05272C2.28255 2.98094 2.29966 2.95813 2.33606 2.90966C2.35393 2.88585 2.37645 2.85586 2.40626 2.81083M19.5866 20.1924C19.5151 20.3006 19.3653 20.4577 19.2631 20.5323L19.2631 20.5323C19.1635 20.605 19.1054 20.6472 19.0334 20.679C18.9635 20.7098 18.8727 20.7336 18.7116 20.7501C18.3844 20.7838 17.8146 20.7838 16.6436 20.7838H16.6238H14.6612M19.5866 20.1924L14.6612 20.7838M2.40626 2.81083L2.28118 2.72802L2.40626 2.81083ZM14.6612 20.7838V18.0631V15.3425H15.6047C15.9059 15.3425 16.1801 15.3405 16.3793 15.3373C16.4788 15.3357 16.5604 15.3338 16.6175 15.3317C16.6458 15.3306 16.6697 15.3295 16.6874 15.3281C16.6957 15.3275 16.7059 15.3265 16.7156 15.325C16.7194 15.3244 16.7296 15.3228 16.7414 15.3191C16.7462 15.3176 16.7609 15.313 16.7772 15.3027L16.7775 15.3026C16.7844 15.2983 16.836 15.2661 16.8464 15.199L16.8474 15.1944L16.8557 15.1584L16.8887 15.0198C16.9174 14.8999 16.959 14.7275 17.0103 14.5153C17.1129 14.0911 17.2545 13.5082 17.4102 12.8692C17.5659 12.2301 17.7075 11.6447 17.8102 11.2165C17.8616 11.0025 17.9032 10.8276 17.932 10.7047C17.9464 10.6434 17.9577 10.5947 17.9654 10.5606L17.9745 10.5194L17.9774 10.5049L17.9789 10.4966C17.9789 10.4965 17.9807 10.4856 17.9807 10.4726C17.9807 10.4187 17.9532 10.3825 17.9364 10.3656C17.9199 10.3492 17.9034 10.3403 17.8956 10.3364C17.8794 10.3283 17.8646 10.3245 17.8586 10.323C17.8442 10.3194 17.829 10.3173 17.817 10.3159C17.7914 10.3128 17.7568 10.3102 17.716 10.3079C17.6335 10.3032 17.5148 10.2992 17.3674 10.2959C17.072 10.2893 16.6558 10.2854 16.171 10.2854H14.6612V9.32609C14.6612 8.7153 14.6639 8.41453 14.6906 8.24498C14.7032 8.16445 14.7193 8.12931 14.7331 8.10892C14.7476 8.08744 14.7685 8.06852 14.8207 8.03135L14.6612 20.7838ZM17.6825 10.4502L17.6824 10.4507C17.6829 10.4473 17.6832 10.4465 17.6825 10.4502Z" fill="#252C54" stroke="#252C54" stroke-width="0.3"/>
</svg>
