<svg width="20" height="21" viewBox="0 0 20 21" fill="none" xmlns="http://www.w3.org/2000/svg">
<path d="M16.3648 1.07966L16.3648 1.07964C15.7857 0.847426 15.1141 0.681437 14.0984 0.633863C13.0446 0.584503 12.7137 0.572266 10 0.572266C7.28596 0.572266 6.95538 0.583573 5.90115 0.63384L16.3648 1.07966ZM16.3648 1.07966L16.3687 1.08116M16.3648 1.07966L16.3687 1.08116M16.3687 1.08116C16.9658 1.3149 17.5089 1.68079 17.959 2.15541L17.9589 2.15547M16.3687 1.08116L17.9589 2.15547M17.9589 2.15547L17.9656 2.16221M17.9589 2.15547L17.9656 2.16221M17.9656 2.16221C18.4234 2.62707 18.7778 3.19053 19.0046 3.81526L19.0045 3.81527M17.9656 2.16221L19.0045 3.81527M19.0045 3.81527L19.0064 3.82026M19.0045 3.81527L19.0064 3.82026M19.0064 3.82026C19.233 4.42415 19.3934 5.12484 19.4405 6.18092C19.4891 7.27597 19.5 7.61939 19.5 10.4297C19.5 13.2406 19.4882 13.5843 19.4405 14.6779C19.3943 15.7334 19.2331 16.434 19.0064 17.0382L19.0064 17.0382M19.0064 3.82026L19.0064 17.0382M19.0064 17.0382L19.0046 17.0432M19.0064 17.0382L19.0046 17.0432M19.0046 17.0432C18.7777 17.668 18.4226 18.2327 17.9651 18.6986L17.965 18.6985M19.0046 17.0432L17.965 18.6985M17.965 18.6985L17.959 18.7049M17.965 18.6985L17.959 18.7049M17.959 18.7049C17.5092 19.1793 16.9663 19.5442 16.3692 19.777L16.3692 19.777M17.959 18.7049L16.3692 19.777M16.3692 19.777L16.3642 19.779M16.3692 19.777L16.3642 19.779M16.3642 19.779C15.7857 20.0119 15.1144 20.177 14.0998 20.2255L16.3642 19.779ZM3.63669 19.779L3.63668 19.779C4.21548 20.012 4.88681 20.1779 5.90071 20.2255C6.95541 20.2749 7.28636 20.2871 10 20.2871C12.714 20.2871 13.0446 20.2758 14.0998 20.2255L3.63669 19.779ZM3.63669 19.779L3.63146 19.777M3.63669 19.779L3.63146 19.777M3.63146 19.777C3.0337 19.5442 2.49069 19.1787 2.04083 18.7047L2.04088 18.7047M3.63146 19.777L2.04088 18.7047M2.04088 18.7047L2.03465 18.6983M2.04088 18.7047L2.03465 18.6983M2.03465 18.6983C1.57686 18.2329 1.2215 17.6685 0.99446 17.0439L0.994479 17.0439M2.03465 18.6983L0.994479 17.0439M0.994479 17.0439L0.992897 17.0397M0.994479 17.0439L0.992897 17.0397M0.992897 17.0397C0.767044 16.4354 0.606572 15.7345 0.559509 14.6785L0.992897 17.0397ZM0.992914 3.8197L0.992897 3.8197C0.766954 4.42417 0.605689 5.12502 0.559524 6.18236C0.511816 7.27505 0.5 7.61872 0.5 10.4297C0.5 13.24 0.510916 13.5834 0.559504 14.6785L0.992914 3.8197ZM0.992914 3.8197L0.994382 3.81567M0.992914 3.8197L0.994382 3.81567M0.994382 3.81567C1.22178 3.19102 1.57744 2.62659 2.03547 2.16113L2.03554 2.1612M0.994382 3.81567L2.03554 2.1612M2.03554 2.1612L2.04205 2.15432M2.03554 2.1612L2.04205 2.15432M2.04205 2.15432C2.49124 1.68022 3.03365 1.31446 3.6309 1.08133L3.63091 1.08135M2.04205 2.15432L3.63091 1.08135M3.63091 1.08135L3.63518 1.07964M3.63091 1.08135L3.63518 1.07964M3.63518 1.07964C4.21398 0.847552 4.88651 0.682348 5.90109 0.633843L3.63518 1.07964ZM3.91461 1.89198L3.91489 1.89186C4.31872 1.72909 4.90295 1.54814 5.93547 1.4993C7.00206 1.44883 7.32786 1.43848 10 1.43848C12.6721 1.43848 12.9979 1.44883 14.0645 1.4993L3.91461 1.89198ZM3.91461 1.89198C3.3853 2.10571 2.99313 2.36751 2.59448 2.77984C2.21238 3.16559 1.91918 3.63345 1.73499 4.14883C1.57974 4.5629 1.40722 5.16234 1.36049 6.22231M3.91461 1.89198L16.0854 18.9674M16.0854 18.9674L16.0851 18.9675C15.6813 19.1303 15.097 19.3112 14.0645 19.3601C12.998 19.4105 12.6731 19.4209 10 19.4209C7.32695 19.4209 7.00205 19.4105 5.93547 19.3601C4.90648 19.3114 4.32272 19.1315 3.91904 18.9692C3.41776 18.7769 2.964 18.4717 2.59206 18.0771C2.21097 17.6917 1.91857 17.224 1.735 16.7106C1.57975 16.2965 1.40722 15.697 1.36049 14.6371C1.31181 13.5336 1.30182 13.1971 1.30182 10.4297C1.30182 7.66226 1.31181 7.32578 1.36049 6.22231M16.0854 18.9674C16.6147 18.7537 17.0068 18.4919 17.4055 18.0796M16.0854 18.9674L17.4055 18.0796M1.36049 6.22231L1.86 6.24435M1.36049 6.22231L1.86 6.24435M1.86 6.24435C1.90455 5.23403 2.06727 4.68603 2.20455 4.32069V16.5387C2.06727 16.1733 1.90455 15.6253 1.86 14.615C1.81182 13.5228 1.80182 13.1951 1.80182 10.4297C1.80182 7.66426 1.81182 7.33658 1.86 6.24435ZM17.4055 18.0796C17.7878 17.6937 18.0811 17.2251 18.265 16.7105C18.4203 16.2965 18.5928 15.697 18.6395 14.6371C18.6882 13.5336 18.6982 13.1971 18.6982 10.4297C18.6982 7.66226 18.6882 7.32578 18.6395 6.22231C18.5926 5.15893 18.4191 4.55903 18.2635 4.14483L18.2634 4.14455C18.059 3.60149 17.8082 3.19754 17.4103 2.78475C17.038 2.38919 16.5841 2.08318 16.081 1.8902C15.6773 1.72785 15.0935 1.54798 14.0645 1.49931L17.4055 18.0796ZM11.1194 14.2172C10.2655 14.4846 9.34821 14.4366 8.52542 14.082L11.1194 14.2172ZM11.1194 14.2172C11.9731 13.9498 12.7068 13.385 13.198 12.6237M11.1194 14.2172L13.198 12.6237M13.198 12.6237C13.6889 11.8627 13.9084 10.9511 13.8214 10.044M13.198 12.6237L13.8214 10.044M13.8214 10.044C13.7344 9.13689 13.3458 8.28625 12.7182 7.63838M13.8214 10.044L12.7182 7.63838M12.7182 7.63838C12.3181 7.22435 11.8331 6.9061 11.2976 6.70777M12.7182 7.63838L11.2976 6.70777M11.2976 6.70777C10.7618 6.50935 10.1895 6.43625 9.62236 6.49419M11.2976 6.70777L9.62236 6.49419M9.62236 6.49419C9.05523 6.55213 8.5085 6.73952 8.02154 7.04186M9.62236 6.49419L8.02154 7.04186M8.02154 7.04186C7.53465 7.34416 7.12002 7.75357 6.80649 8.23953M8.02154 7.04186L6.80649 8.23953M6.80649 8.23953C6.493 8.72545 6.28808 9.27623 6.20553 9.85214M6.80649 8.23953L6.20553 9.85214M6.20553 9.85214C6.12298 10.428 6.1647 11.0158 6.32789 11.5734M6.20553 9.85214L6.32789 11.5734M6.32789 11.5734C6.4911 12.1311 6.77201 12.6456 7.15156 13.0796M6.32789 11.5734L7.15156 13.0796M7.15156 13.0796C7.53113 13.5136 8.00008 13.8564 8.52535 14.082L7.15156 13.0796ZM6.72516 7.01253C7.15687 6.56539 7.66842 6.21168 8.23013 5.97069C8.7918 5.72972 9.39315 5.60595 10 5.60595C10.6069 5.60595 11.2082 5.72972 11.7699 5.97069C12.3316 6.21168 12.8431 6.56539 13.2748 7.01253C13.7066 7.4597 14.0499 7.99152 14.2845 8.57804C14.5191 9.1646 14.64 9.79384 14.64 10.4297C14.64 11.0655 14.5191 11.6948 14.2845 12.2813C14.0499 12.8679 13.7066 13.3997 13.2748 13.8468C12.4032 14.7496 11.2248 15.2534 10 15.2534C8.77517 15.2534 7.5968 14.7496 6.72516 13.8468C5.85295 12.9435 5.35998 11.7146 5.35998 10.4297C5.35998 9.1448 5.85295 7.91591 6.72516 7.01253ZM16.0983 5.29459C16.0583 5.38871 16.001 5.47238 15.9306 5.54115C15.794 5.67458 15.6163 5.74459 15.4358 5.74186C15.2553 5.73914 15.0793 5.66375 14.9462 5.52592C14.8126 5.38754 14.7334 5.19718 14.7306 4.99435C14.7277 4.79151 14.8015 4.59855 14.9315 4.45587C14.9981 4.38269 15.0773 4.32516 15.1638 4.28575C15.2502 4.24636 15.3426 4.22563 15.4358 4.22422C15.529 4.22281 15.6219 4.24075 15.7092 4.27745C15.7966 4.31417 15.8772 4.36918 15.9457 4.44016C16.0143 4.51118 16.0693 4.59671 16.1067 4.69213C16.1441 4.78758 16.1628 4.89041 16.1613 4.99435C16.1599 5.0983 16.1383 5.20044 16.0983 5.29459Z" fill="#1C232D" stroke="#252C54"/>
</svg>
