<svg width="18" height="24" viewBox="0 0 18 24" fill="none" xmlns="http://www.w3.org/2000/svg">
<path d="M9 11.7727C10.6569 11.7727 12 10.3816 12 8.66565C12 6.94967 10.6569 5.55859 9 5.55859C7.34315 5.55859 6 6.94967 6 8.66565C6 10.3816 7.34315 11.7727 9 11.7727Z" stroke="#252C54" stroke-width="2" stroke-linecap="round" stroke-linejoin="round"/>
<path d="M9 1.41504C6.87827 1.41504 4.84344 2.28806 3.34315 3.84205C1.84285 5.39604 1 7.5037 1 9.70137C1 11.6611 1.402 12.9434 2.5 14.3624L9 22.1309L15.5 14.3624C16.598 12.9434 17 11.6611 17 9.70137C17 7.5037 16.1571 5.39604 14.6569 3.84205C13.1566 2.28806 11.1217 1.41504 9 1.41504V1.41504Z" stroke="#252C54" stroke-width="2" stroke-linecap="round" stroke-linejoin="round"/>
</svg>
