<svg width="27" height="23" viewBox="0 0 27 23" fill="none" xmlns="http://www.w3.org/2000/svg">
<path d="M25.5212 1.08387C24.4538 1.86367 23.272 2.46009 22.0213 2.85016C21.3501 2.05073 20.4579 1.48411 19.4656 1.22694C18.4733 0.96977 17.4286 1.03446 16.473 1.41226C15.5173 1.79006 14.6967 2.46273 14.1222 3.33932C13.5476 4.2159 13.2469 5.25409 13.2606 6.31347V7.46791C11.3018 7.52051 9.36091 7.07057 7.6107 6.15814C5.86048 5.24571 4.3553 3.89912 3.2292 2.23831C3.2292 2.23831 -1.2292 12.6282 8.80219 17.246C6.50671 18.8598 3.77218 19.6691 1 19.5549C11.0314 25.327 23.292 19.5549 23.292 6.27884C23.291 5.95728 23.2611 5.6365 23.2028 5.32066C24.3404 4.15871 25.1431 2.69167 25.5212 1.08387Z" stroke="#252C54" stroke-width="2" stroke-linecap="round" stroke-linejoin="round"/>
</svg>
