<svg width="184" height="45" viewBox="0 0 184 45" fill="none" xmlns="http://www.w3.org/2000/svg">
<path d="M20.8304 40.6731C29.9378 40.6731 37.3209 33.3116 37.3209 24.2308C37.3209 15.1499 29.9378 7.78845 20.8304 7.78845C11.7229 7.78845 4.33978 15.1499 4.33978 24.2308C4.33978 33.3116 11.7229 40.6731 20.8304 40.6731Z" stroke="#005FF0" stroke-width="8.66654"/>
<path d="M53.8113 40.6731C62.9187 40.6731 70.3018 33.3116 70.3018 24.2308C70.3018 15.1499 62.9187 7.78845 53.8113 7.78845C44.7038 7.78845 37.3207 15.1499 37.3207 24.2308C37.3207 33.3116 44.7038 40.6731 53.8113 40.6731Z" stroke="#333333" stroke-width="8.66654"/>
<path d="M95.1942 19.1565L92.3336 22.0171C91.1713 20.8661 90.1162 20.2906 89.1683 20.2906C88.6492 20.2906 88.2429 20.4034 87.9495 20.6291C87.6561 20.8435 87.5094 21.1143 87.5094 21.4416C87.5094 21.6899 87.5997 21.9212 87.7803 22.1356C87.9721 22.3387 88.4348 22.6208 89.1683 22.9819L90.861 23.8283C92.6439 24.7085 93.8683 25.6056 94.5341 26.5197C95.1999 27.4337 95.5328 28.5057 95.5328 29.7358C95.5328 31.372 94.929 32.7374 93.7216 33.832C92.5254 34.9267 90.9174 35.474 88.8974 35.474C86.2117 35.474 84.0677 34.4245 82.4652 32.3256L85.309 29.2279C85.8506 29.8599 86.4826 30.3733 87.2048 30.7683C87.9383 31.152 88.5871 31.3438 89.1514 31.3438C89.7607 31.3438 90.2516 31.1971 90.624 30.9037C90.9964 30.6103 91.1826 30.2718 91.1826 29.8881C91.1826 29.1772 90.5111 28.4832 89.1683 27.8061L87.611 27.0275C84.6319 25.5266 83.1423 23.6477 83.1423 21.3908C83.1423 19.9351 83.7009 18.6938 84.8181 17.6669C85.9465 16.6287 87.3853 16.1096 89.1344 16.1096C90.3306 16.1096 91.4534 16.3748 92.5029 16.9052C93.5636 17.4243 94.4607 18.1747 95.1942 19.1565ZM112.798 16.5836H117.402V35H112.798V33.0534C111.895 33.911 110.987 34.5317 110.073 34.9154C109.17 35.2878 108.188 35.474 107.128 35.474C104.747 35.474 102.687 34.5543 100.949 32.7149C99.2115 30.8642 98.3426 28.5678 98.3426 25.8256C98.3426 22.9819 99.1833 20.6517 100.865 18.8349C102.546 17.018 104.589 16.1096 106.992 16.1096C108.098 16.1096 109.136 16.3184 110.107 16.7359C111.077 17.1535 111.974 17.7798 112.798 18.6148V16.5836ZM107.94 20.3752C106.507 20.3752 105.316 20.883 104.369 21.8986C103.421 22.9029 102.947 24.195 102.947 25.7749C102.947 27.366 103.426 28.675 104.386 29.7019C105.356 30.7288 106.547 31.2422 107.957 31.2422C109.413 31.2422 110.62 30.7401 111.579 29.7358C112.539 28.7201 113.018 27.3942 113.018 25.7579C113.018 24.1555 112.539 22.8578 111.579 21.8648C110.62 20.8717 109.407 20.3752 107.94 20.3752ZM121.583 9.47432H126.204V35H121.583V9.47432ZM144.011 16.5836H148.615V35H144.011V33.0534C143.108 33.911 142.2 34.5317 141.286 34.9154C140.383 35.2878 139.402 35.474 138.341 35.474C135.96 35.474 133.9 34.5543 132.162 32.7149C130.425 30.8642 129.556 28.5678 129.556 25.8256C129.556 22.9819 130.396 20.6517 132.078 18.8349C133.759 17.018 135.802 16.1096 138.205 16.1096C139.311 16.1096 140.349 16.3184 141.32 16.7359C142.29 17.1535 143.187 17.7798 144.011 18.6148V16.5836ZM139.153 20.3752C137.72 20.3752 136.53 20.883 135.582 21.8986C134.634 22.9029 134.16 24.195 134.16 25.7749C134.16 27.366 134.639 28.675 135.599 29.7019C136.569 30.7288 137.76 31.2422 139.17 31.2422C140.626 31.2422 141.833 30.7401 142.793 29.7358C143.752 28.7201 144.231 27.3942 144.231 25.7579C144.231 24.1555 143.752 22.8578 142.793 21.8648C141.833 20.8717 140.62 20.3752 139.153 20.3752ZM153.253 16.5836H157.891V18.6994C158.681 17.8305 159.556 17.1817 160.515 16.7529C161.485 16.324 162.541 16.1096 163.68 16.1096C164.831 16.1096 165.869 16.3918 166.795 16.956C167.72 17.5202 168.465 18.344 169.029 19.4273C169.763 18.344 170.66 17.5202 171.721 16.956C172.793 16.3918 173.96 16.1096 175.224 16.1096C176.533 16.1096 177.684 16.4143 178.677 17.0237C179.67 17.6331 180.381 18.4286 180.81 19.4104C181.25 20.3921 181.47 21.9889 181.47 24.2007V35H176.815V25.6564C176.815 23.5687 176.556 22.1582 176.037 21.4247C175.518 20.6799 174.739 20.3075 173.701 20.3075C172.911 20.3075 172.2 20.5332 171.568 20.9846C170.948 21.436 170.485 22.0622 170.18 22.8635C169.875 23.6534 169.723 24.9285 169.723 26.6889V35H165.068V26.0796C165.068 24.432 164.944 23.2415 164.696 22.508C164.459 21.7632 164.098 21.2103 163.613 20.8492C163.127 20.4881 162.541 20.3075 161.852 20.3075C161.085 20.3075 160.385 20.5388 159.753 21.0015C159.133 21.4529 158.664 22.0905 158.348 22.9142C158.044 23.738 157.891 25.0357 157.891 26.8074V35H153.253V16.5836Z" fill="#333333"/>
</svg>
