<svg width="146" height="25" viewBox="0 0 146 25" fill="none" xmlns="http://www.w3.org/2000/svg">
<g clip-path="url(#clip0_745_16647)">
<path d="M39.5615 5.06396C38.6238 5.06396 37.3966 5.58349 36.9624 6.45355L34.5207 11.3296L31.9719 6.46607C31.5188 5.68364 30.3798 5.06396 29.3288 5.06396H26.1948H25.3264H9.19081H6.69244C5.01217 5.06396 3.48924 5.7525 2.38165 6.84789C1.27405 7.94954 0.588104 9.46431 0.588104 11.1356C0.588104 12.8068 1.28035 14.3216 2.38165 15.4233C3.48924 16.5249 5.01847 17.2134 6.69244 17.2134H8.48598C8.86357 17.2134 9.21598 17.3699 9.46771 17.6266C9.73202 17.8832 9.88935 18.2337 9.88935 18.6093C9.88935 18.9911 9.73202 19.3416 9.474 19.592C9.21599 19.8486 8.86986 20.0051 8.48598 20.0051H2.31871C1.31811 20.0239 0.5 20.8501 0.5 21.8579V23.1473C0.5 24.1551 1.31811 24.9751 2.31871 25.0001H8.48598C10.2481 25.0001 11.8591 24.2865 13.0233 23.1223C14.1876 21.9706 14.905 20.3682 14.905 18.6093C14.905 16.8504 14.1813 15.2542 13.017 14.0963C11.815 12.9007 10.1788 12.2184 8.47969 12.2184H6.69244C6.39666 12.2184 6.13235 12.0933 5.93097 11.8992C5.73588 11.6989 5.61002 11.4298 5.61002 11.1418C5.61002 10.8476 5.73588 10.5785 5.93097 10.3844C6.13235 10.1841 6.40296 10.0652 6.69873 10.0652H9.19711H16.9502V23.1098C16.9502 24.1551 17.8124 25.0064 18.8571 25.0064H20.0528C21.11 25.0064 21.9659 24.1551 21.9659 23.1098V10.059H25.3327V23.1035C25.3327 24.1488 26.1886 25.0001 27.2395 25.0001H28.4415C29.4862 25.0001 30.3483 24.1488 30.3483 23.1035V13.9147L33.7718 19.9863C34.1682 20.6999 34.8039 20.725 35.2255 20.0677L35.9492 18.6719L37.0316 16.9192C37.1764 14.4843 37.7364 12.0807 39.1084 10.0151C40.2663 8.27503 41.7011 7.17338 43.3814 5.99035C43.5954 5.84013 44.3568 5.37693 44.3568 5.07022H39.5615V5.06396ZM47.2265 12.2497C47.0503 12.3812 46.8678 12.5064 46.6916 12.6316C45.326 13.5955 43.7904 14.6784 43.7904 18.3339V20.3744V23.1035C43.7904 24.1488 42.9346 25.0001 41.8899 25.0001H40.6753C39.6307 25.0001 38.7685 24.1488 38.7685 23.1035V22.0394V20.3744V18.3339C38.7685 11.411 41.7515 9.31409 44.4135 7.44253L44.5456 7.34238C44.8854 9.15135 45.6658 10.7475 47.1195 12.1496C47.1447 12.1809 47.1824 12.2122 47.2265 12.2497Z" fill="#124381"/>
<path fill-rule="evenodd" clip-rule="evenodd" d="M51.1406 3.2987H46.125V1.02028C46.125 0.456935 46.5781 0 47.1445 0H50.1086C50.6686 0 51.1343 0.456935 51.1343 1.02028V3.2987H51.1406ZM46.1313 5.06385C46.1313 9.48297 48.2521 10.979 50.5931 12.6252C51.965 13.5891 53.4943 14.672 53.4943 18.3275V20.3681V22.2021V23.1034C53.4943 24.1425 54.3501 25 55.3948 25H56.5968C57.654 25 58.5099 24.1487 58.5099 23.1034V20.3743V18.3338C58.5099 11.4109 55.5332 9.31397 52.8712 7.44241C51.965 6.80396 51.1406 6.22809 51.1406 5.07011H46.1313V5.06385Z" fill="#C9D231"/>
<path fill-rule="evenodd" clip-rule="evenodd" d="M141.699 16.9067C142.102 16.65 142.492 16.3559 142.832 16.0116C143.996 14.8599 144.707 13.27 144.707 11.5236C144.707 9.77723 143.99 8.18735 142.826 7.03562C141.636 5.84634 140.006 5.16406 138.32 5.16406H132.775H132.178H131.58C130.529 5.16406 129.679 6.00908 129.679 7.0544V10.134V20.0301V23.1097C129.679 24.1551 130.529 25.0001 131.58 25.0001H132.775C133.82 25.0001 134.67 24.1551 134.67 23.1097V20.0301V10.1278H138.32C138.697 10.1278 139.043 10.2842 139.295 10.5409C139.553 10.7975 139.717 11.1355 139.717 11.5173C139.717 11.8992 139.559 12.2434 139.301 12.4938C139.05 12.7442 138.691 12.9007 138.32 12.9007L137.867 12.9069C136.86 12.9257 136.054 13.7457 136.054 14.7472V16.0366C136.054 16.3621 136.142 16.6876 136.312 16.963L139.862 23.1097C140.378 24.1551 140.868 25.0001 141.907 25.0001H144.323C145.374 25.0001 145.802 24.1551 145.286 23.1097L141.699 16.9067Z" fill="#124381"/>
<path d="M93.8837 14.4594C95.0291 13.4767 95.6395 12.0495 95.6395 10.4534C95.6395 7.47392 93.4558 5.07031 89.7051 5.07031H89.4408H82.6945C81.6499 5.07657 80.8003 5.92159 80.8003 6.96065V10.0403V19.9927V23.0723C80.8003 24.1114 81.6499 24.9627 82.6945 24.9627H89.4408H90.1015C94.0159 24.9627 96.2625 22.4151 96.2625 19.179C96.2625 17.2135 95.4192 15.4985 93.8837 14.4594ZM85.9292 9.53326H89.1072C90.0008 9.53326 90.5106 10.1216 90.5106 11.023C90.5106 11.9056 90.0449 12.4752 89.2079 12.519H85.9292V9.53326ZM89.1261 20.4559H85.9292V17.0508H89.1261C90.1393 17.0508 90.7246 17.7205 90.7246 18.7471C90.7308 19.7987 90.1519 20.4559 89.1261 20.4559Z" fill="#124381"/>
<path d="M103.141 12.4688H109.503C109.692 12.4751 109.874 12.5001 110.044 12.5565C110.302 12.6378 110.529 12.7693 110.73 12.9383C111.12 13.2825 111.372 13.777 111.372 14.3341V14.8411C111.372 15.3982 111.12 15.899 110.73 16.237C110.535 16.406 110.302 16.5374 110.044 16.6188C109.874 16.6751 109.692 16.7002 109.503 16.7064H109.251H103.141V20.6624H103.682H110.428C110.623 20.6624 110.818 20.6937 110.995 20.75C111.762 20.9941 112.322 21.7077 112.322 22.5527V23.066C112.322 23.911 111.762 24.6246 110.995 24.8687C110.812 24.925 110.623 24.9563 110.428 24.9563H103.682H102.921H100.208C99.1635 24.95 98.314 24.105 98.314 23.066V19.9863V10.0339V6.9543C98.314 5.91524 99.1635 5.06396 100.208 5.06396H102.921H103.682H110.428C110.623 5.06396 110.818 5.09526 110.995 5.1516C111.253 5.23297 111.479 5.36442 111.681 5.53968C112.071 5.88394 112.322 6.39096 112.322 6.9543V7.46757C112.322 8.03092 112.071 8.53792 111.681 8.88219C111.485 9.05745 111.253 9.1889 110.995 9.27027C110.812 9.32661 110.623 9.35791 110.428 9.35791H110.202H103.141V12.4688Z" fill="#124381"/>
<path d="M118.823 12.4688H125.186C125.375 12.4751 125.557 12.5001 125.727 12.5565C125.985 12.6378 126.212 12.7693 126.413 12.9383C126.803 13.2825 127.055 13.777 127.055 14.3341V14.8411C127.055 15.3982 126.803 15.899 126.413 16.237C126.218 16.406 125.985 16.5374 125.727 16.6188C125.557 16.6751 125.375 16.7002 125.186 16.7064H124.934H118.823V20.6624H119.365H126.111C126.306 20.6624 126.501 20.6937 126.677 20.75C127.445 20.9941 128.005 21.7077 128.005 22.5527V23.066C128.005 23.911 127.445 24.6246 126.677 24.8687C126.495 24.925 126.306 24.9563 126.111 24.9563H119.365H118.603H115.891C114.846 24.95 113.997 24.105 113.997 23.066V19.9863V10.0339V6.9543C113.997 5.91524 114.846 5.06396 115.891 5.06396H118.603H119.365H126.111C126.306 5.06396 126.501 5.09526 126.677 5.1516C126.935 5.23297 127.162 5.36442 127.363 5.53968C127.753 5.88394 128.005 6.39096 128.005 6.9543V7.46757C128.005 8.03092 127.753 8.53792 127.363 8.88219C127.168 9.05745 126.935 9.1889 126.677 9.27027C126.495 9.32661 126.306 9.35791 126.111 9.35791H125.884H118.823V12.4688Z" fill="#124381"/>
<path d="M61.7574 15.7549L62.2043 17.6202L63.1797 17.3448C63.1734 18.0334 63.2489 18.7219 63.4125 19.3916L63.8594 21.2569L65.5837 20.7687C65.7284 20.7249 65.8732 20.6811 66.0179 20.631C66.3326 21.6575 66.8863 22.5839 67.7548 23.5354L69.0071 24.9062L70.2784 23.5479C71.1594 22.609 71.7258 21.6888 72.053 20.6686C72.1978 20.7186 72.3362 20.7687 72.4809 20.8125L74.199 21.3195L74.671 19.4605C74.8409 18.7907 74.929 18.1022 74.929 17.4137L75.8981 17.7016L76.3701 15.8426C76.6218 14.8536 76.6848 13.8208 76.5652 12.8068L77.3518 12.813L77.3644 10.8726C77.3896 6.97301 74.7402 3.61798 71.1531 3.11097L71.172 0.144022L67.1507 0.125244L67.1318 3.09219C63.5384 3.55539 60.8512 6.87286 60.8261 10.7787L60.8135 12.7191L61.6001 12.7254C61.468 13.7269 61.5183 14.766 61.7574 15.7549ZM63.0538 15.3856C62.8462 14.5156 62.8084 13.6017 62.9531 12.7191C64.023 12.6691 65.0802 12.3436 66.0242 11.7927C66.1878 12.3936 66.4144 12.9695 66.6976 13.5141C65.9172 14.6032 64.8222 15.3794 63.5825 15.7299L63.1545 15.8488L63.0538 15.3856ZM70.9769 15.1603C70.7503 16.3871 70.1839 17.5389 69.3595 18.4214L69.0449 18.7594L68.7365 18.4214C67.9247 17.5263 67.3709 16.3746 67.1632 15.1415C67.2828 15.0101 67.4024 14.8786 67.5157 14.7347C67.6101 14.8536 67.7107 14.9725 67.8114 15.0852L69.0638 16.456L70.335 15.0977C70.442 14.985 70.5427 14.8724 70.6371 14.7534C70.7377 14.8911 70.8573 15.0288 70.9769 15.1603ZM69.3847 14.0649L69.0701 14.4029L68.7617 14.0649C67.9814 13.2074 67.4401 12.1057 67.2136 10.9289C67.3709 10.785 67.5283 10.6348 67.673 10.4783C68.2708 9.83981 68.7554 9.08869 69.1078 8.26871C69.4539 9.09495 69.9259 9.85233 70.5175 10.4971C70.6622 10.6598 70.8133 10.81 70.9706 10.954C70.7315 12.1245 70.1777 13.2199 69.3847 14.0649ZM65.2438 19.3666L64.8159 19.4855L64.7026 19.0223C64.539 18.3338 64.4824 17.6265 64.5327 16.9254C65.0488 16.7251 65.5396 16.4622 65.9927 16.143C66.213 16.9755 66.5717 17.7705 67.0311 18.4778C66.4962 18.8846 65.8857 19.1851 65.2438 19.3666ZM69.3344 22.5213L69.0197 22.8593L68.7114 22.5213C67.9499 21.6826 67.4968 20.9189 67.2513 20.0489C67.4842 19.9112 67.7045 19.7609 67.9184 19.5919L69.0323 20.8125L70.1588 19.6107C70.3727 19.7797 70.593 19.9362 70.8196 20.0739C70.5678 20.9315 70.1084 21.6888 69.3344 22.5213ZM73.3746 19.0787L73.255 19.5356L72.8334 19.4104C72.1978 19.2226 71.5873 18.9097 71.0461 18.5028C71.5181 17.8018 71.8831 17.0131 72.1159 16.1806C72.569 16.5061 73.0536 16.7752 73.5697 16.9818C73.6137 17.6891 73.5508 18.3964 73.3746 19.0787ZM75.0737 15.4607L74.9541 15.9177L74.5325 15.7925C73.2991 15.4232 72.2166 14.6345 71.4489 13.5329C71.7446 12.9945 71.9775 12.4187 72.1474 11.824C73.0851 12.3874 74.136 12.7254 75.2059 12.788C75.338 13.6831 75.294 14.5907 75.0737 15.4607ZM76.024 10.8664V11.3546H75.5709C74.0542 11.3421 72.5565 10.6598 71.4803 9.47677C70.4042 8.30001 69.8001 6.66005 69.8064 4.97627V4.50056H70.2469C73.4941 4.51933 76.0429 7.39865 76.024 10.8664ZM68.4848 1.58368L69.8252 1.58994L69.8189 3.04212L68.4785 3.03586L68.4848 1.58368ZM62.1665 10.7787C62.1854 7.31102 64.7781 4.463 68.0254 4.48178H68.4659V4.95749C68.4533 6.64127 67.824 8.27497 66.7353 9.43921C65.6403 10.6097 64.1362 11.2795 62.6196 11.267H62.1665V10.7787Z" fill="#124381"/>
<path d="M68.4804 1.58493L68.4712 3.03711L69.8116 3.04551L69.8208 1.59333L68.4804 1.58493Z" fill="#C9D231"/>
<path d="M64.5388 16.9256C64.4822 17.6329 64.5388 18.3339 64.7087 19.0225L64.822 19.4857L65.2499 19.3667C65.8855 19.1852 66.496 18.8848 67.0435 18.4842C66.5778 17.7769 66.2254 16.9819 66.0051 16.1494C65.5457 16.4624 65.0549 16.7253 64.5388 16.9256Z" fill="#C9D231"/>
<path d="M67.2134 10.929C67.4399 12.1058 67.9811 13.2075 68.7615 14.065L69.0699 14.403L69.3845 14.065C70.1774 13.22 70.7312 12.1246 70.9767 10.9541C70.8193 10.8101 70.6683 10.6599 70.5236 10.4971C69.932 9.85242 69.46 9.09504 69.1139 8.2688C68.7615 9.08878 68.2769 9.8399 67.6791 10.4784C67.528 10.6348 67.3707 10.7851 67.2134 10.929Z" fill="#C9D231"/>
<path d="M66.729 9.44557C67.8177 8.28132 68.447 6.64762 68.4596 4.96384V4.48813H68.0191C64.7718 4.46935 62.1853 7.31112 62.1602 10.7851V11.2733H62.6133C64.1362 11.2858 65.634 10.6161 66.729 9.44557Z" fill="#C9D231"/>
<path d="M69.0324 20.8063L67.9185 19.5857C67.7046 19.7484 67.478 19.9049 67.2515 20.0426C67.4906 20.9127 67.9437 21.6763 68.7115 22.5151L69.0198 22.8531L69.3345 22.5151C70.1085 21.6888 70.5742 20.9315 70.8197 20.0614C70.5931 19.9174 70.3729 19.7672 70.1589 19.5982L69.0324 20.8063Z" fill="#C9D231"/>
<path d="M66.7038 13.5077C66.4143 12.9694 66.1877 12.3873 66.0304 11.7864C65.0864 12.3372 64.0292 12.6627 62.9593 12.7128C62.8146 13.5953 62.8461 14.5092 63.06 15.3793L63.1733 15.8425L63.6012 15.7235C64.8284 15.3793 65.9234 14.5968 66.7038 13.5077Z" fill="#C9D231"/>
<path d="M72.1473 11.8303C71.9774 12.425 71.7445 13.0008 71.4487 13.5391C72.2165 14.6345 73.2989 15.4295 74.5324 15.7988L74.954 15.924L75.0736 15.467C75.2938 14.597 75.3379 13.6831 75.2057 12.8005C74.1359 12.7317 73.0849 12.3937 72.1473 11.8303Z" fill="#C9D231"/>
<path d="M70.2469 4.50049H69.8063V4.9762C69.7938 6.65998 70.4042 8.29994 71.4803 9.4767C72.5627 10.6597 74.0542 11.3483 75.5708 11.3545H76.024V10.8663C76.0428 7.39859 73.4941 4.51927 70.2469 4.50049Z" fill="#C9D231"/>
<path d="M70.3285 15.0977L69.0573 16.456L67.8049 15.0851C67.7042 14.9725 67.6036 14.8535 67.5092 14.7346C67.3959 14.8723 67.2826 15.01 67.1567 15.1415C67.3644 16.3746 67.9182 17.5263 68.73 18.4214L69.0384 18.7594L69.353 18.4214C70.1774 17.5388 70.7438 16.3934 70.9704 15.1603C70.8508 15.0288 70.7375 14.8911 70.6243 14.7534C70.5299 14.8723 70.4292 14.985 70.3285 15.0977Z" fill="#C9D231"/>
<path d="M72.1221 16.1868C71.8892 17.0193 71.5242 17.8079 71.0522 18.509C71.5935 18.9159 72.2039 19.2288 72.8395 19.4166L73.2611 19.5418L73.3807 19.0849C73.5569 18.3963 73.6199 17.6953 73.5758 16.988C73.0598 16.7751 72.5689 16.506 72.1221 16.1868Z" fill="#C9D231"/>
</g>
<defs>
<clipPath id="clip0_745_16647">
<rect width="145" height="25" fill="white" transform="translate(0.5)"/>
</clipPath>
</defs>
</svg>
