<svg width="25" height="24" viewBox="0 0 25 24" fill="none" xmlns="http://www.w3.org/2000/svg">
<path d="M11.4999 7.83C10.9148 7.62312 10.4082 7.23984 10.05 6.73298C9.69176 6.22613 9.49958 5.62065 9.49991 5C9.49991 4.20435 9.81598 3.44129 10.3786 2.87868C10.9412 2.31607 11.7043 2 12.4999 2C13.2956 2 14.0586 2.31607 14.6212 2.87868C15.1838 3.44129 15.4999 4.20435 15.4999 5C15.4999 6.31 14.6599 7.42 13.4999 7.83V10.64C12.8462 10.4543 12.1536 10.4543 11.4999 10.64V7.83ZM18.7999 21.1C18.2607 20.7929 17.8305 20.3256 17.5689 19.763C17.3073 19.2003 17.2272 18.5702 17.3399 17.96L14.8999 16.55C15.3799 16.09 15.7399 15.5 15.8999 14.82L18.3399 16.23C19.2799 15.42 20.6599 15.26 21.7899 15.91C23.2299 16.74 23.7199 18.57 22.8899 20C22.6943 20.3415 22.4332 20.6411 22.1215 20.8814C21.8098 21.1217 21.4536 21.298 21.0736 21.4002C20.6935 21.5024 20.297 21.5285 19.9068 21.477C19.5166 21.4255 19.1404 21.2974 18.7999 21.1ZM3.19991 15.9C4.32991 15.25 5.70991 15.42 6.64991 16.22L9.09991 14.81C9.25991 15.5 9.60991 16.08 10.0999 16.54L7.64991 17.95C7.87991 19.17 7.32991 20.45 6.19991 21.1C4.75991 21.93 2.92991 21.44 2.09991 20C1.90257 19.6587 1.77448 19.2817 1.72297 18.8908C1.67146 18.4999 1.69753 18.1027 1.7997 17.7219C1.90187 17.3411 2.07813 16.9841 2.3184 16.6715C2.55866 16.3589 2.85821 16.0967 3.19991 15.9ZM14.4999 14C14.4999 14.5304 14.2892 15.0391 13.9141 15.4142C13.5391 15.7893 13.0303 16 12.4999 16C11.9695 16 11.4608 15.7893 11.0857 15.4142C10.7106 15.0391 10.4999 14.5304 10.4999 14C10.4999 13.4696 10.7106 12.9609 11.0857 12.5858C11.4608 12.2107 11.9695 12 12.4999 12C13.0303 12 13.5391 12.2107 13.9141 12.5858C14.2892 12.9609 14.4999 13.4696 14.4999 14ZM17.4999 14L17.4699 14.57L15.9999 13.71C15.8999 12.64 15.3299 11.71 14.4999 11.12V9.41C16.2699 10.19 17.4999 11.95 17.4999 14ZM15.4699 18.03C14.6399 18.64 13.6099 19 12.4999 19C11.3899 19 10.3599 18.64 9.52991 18L10.9999 17.17C11.4599 17.38 11.9699 17.5 12.4999 17.5C13.0299 17.5 13.5299 17.38 13.9999 17.17L15.4699 18.03ZM7.52991 14.56L7.49991 14C7.49991 11.95 8.72991 10.19 10.4999 9.42V11.13C9.66991 11.71 9.09991 12.64 8.99991 13.7L7.52991 14.56Z" fill="#3E4A96"/>
</svg>
